# Low-poly head position indicator with features
# +Y up, +Z forward (face direction)
v 0.00000 1.08000 0.00000
v 0.00000 1.08000 0.00000
v 0.00000 1.08000 0.00000
v 0.00000 1.08000 0.00000
v 0.00000 1.08000 0.00000
v 0.00000 1.08000 0.00000
v 0.00000 1.08000 0.00000
v 0.00000 1.08000 0.00000
v 0.00000 1.08000 0.00000
v 0.00000 1.08000 0.00000
v 0.00000 1.08000 0.00000
v 0.00000 1.08000 0.00000
v 0.00000 1.08000 0.00000
v 0.00000 1.08000 0.00000
v 0.00000 1.08000 0.00000
v 0.00000 1.08000 0.00000
v 0.17709 1.04862 0.00000
v 0.16361 1.04862 0.07920
v 0.12522 1.04862 0.14634
v 0.06777 1.04862 0.19121
v 0.00000 1.04862 0.20696
v -0.06777 1.04862 0.19121
v -0.12522 1.04862 0.14634
v -0.16361 1.04862 0.07920
v -0.17709 1.04862 0.00000
v -0.16361 1.04862 -0.08950
v -0.12522 1.04862 -0.16537
v -0.06777 1.04862 -0.21606
v -0.00000 1.04862 -0.23387
v 0.06777 1.04862 -0.21606
v 0.12522 1.04862 -0.16537
v 0.16361 1.04862 -0.08950
v 0.34390 0.95629 0.00000
v 0.31772 0.95629 0.15380
v 0.24317 0.95629 0.28418
v 0.13160 0.95629 0.37130
v 0.00000 0.95629 0.40189
v -0.13160 0.95629 0.37130
v -0.24317 0.95629 0.28418
v -0.31772 0.95629 0.15380
v -0.34390 0.95629 0.00000
v -0.31772 0.95629 -0.17379
v -0.24317 0.95629 -0.32112
v -0.13160 0.95629 -0.41957
v -0.00000 0.95629 -0.45414
v 0.13160 0.95629 -0.41957
v 0.24317 0.95629 -0.32112
v 0.31772 0.95629 -0.17379
v 0.49071 0.80839 0.00000
v 0.45336 0.80839 0.21946
v 0.34698 0.80839 0.40550
v 0.18779 0.80839 0.52982
v 0.00000 0.80839 0.57347
v -0.18779 0.80839 0.52982
v -0.34698 0.80839 0.40550
v -0.45336 0.80839 0.21946
v -0.49071 0.80839 0.00000
v -0.45336 0.80839 -0.24799
v -0.34698 0.80839 -0.45822
v -0.18779 0.80839 -0.59869
v -0.00000 0.80839 -0.64802
v 0.18779 0.80839 -0.59869
v 0.34698 0.80839 -0.45822
v 0.45336 0.80839 -0.24799
v 0.60901 0.61351 0.00000
v 0.56265 0.61351 0.28975
v 0.43063 0.61351 0.53540
v 0.23306 0.61351 0.69953
v 0.00000 0.61351 0.75715
v -0.23306 0.61351 0.69953
v -0.43063 0.61351 0.53540
v -0.56265 0.61351 0.28975
v -0.60901 0.61351 0.00000
v -0.56265 0.61351 -0.32741
v -0.43063 0.61351 -0.60498
v -0.23306 0.61351 -0.79045
v -0.00000 0.61351 -0.85557
v 0.23306 0.61351 -0.79045
v 0.43063 0.61351 -0.60498
v 0.56265 0.61351 -0.32741
v 0.69191 0.38297 0.00000
v 0.63924 0.38297 0.33136
v 0.48926 0.38297 0.62044
v 0.26478 0.38297 0.82014
v 0.00000 0.38297 0.86768
v -0.26478 0.38297 0.82014
v -0.48926 0.38297 0.62044
v -0.63924 0.38297 0.33136
v -0.69191 0.38297 0.00095
v -0.63924 0.38297 -0.37198
v -0.48926 0.38297 -0.68734
v -0.26478 0.38297 -0.89805
v -0.00000 0.38297 -0.97204
v 0.26478 0.38297 -0.89805
v 0.48926 0.38297 -0.68734
v 0.63924 0.38297 -0.37198
v 0.73460 0.13018 0.00000
v 0.67869 0.13018 0.34950
v 0.51944 0.13018 0.64100
v 0.28112 0.13018 0.68879
v 0.00000 0.13018 0.90795
v -0.28112 0.13018 0.68879
v -0.51944 0.13018 0.64100
v -0.67869 0.13018 0.34950
v -0.73460 0.13018 0.00001
v -0.67869 0.13018 -0.39494
v -0.51944 0.13018 -0.72975
v -0.28112 0.13018 -0.95346
v -0.00000 0.13018 -1.03202
v 0.28112 0.13018 -0.95346
v 0.51944 0.13018 -0.72975
v 0.67869 0.13018 -0.39494
v 0.69444 -0.13018 0.00000
v 0.64158 -0.13018 0.34040
v 0.49104 -0.13018 0.62885
v 0.26575 -0.13018 0.81976
v 0.00000 -0.13018 0.88944
v -0.26575 -0.13018 0.81976
v -0.49104 -0.13018 0.62885
v -0.64158 -0.13018 0.34040
v -0.69444 -0.13018 -0.00000
v -0.64158 -0.13018 -0.39494
v -0.49104 -0.13018 -0.72975
v -0.26575 -0.13018 -0.95346
v -0.00000 -0.13018 -1.03202
v 0.26575 -0.13018 -0.95346
v 0.49104 -0.13018 -0.72975
v 0.64158 -0.13018 -0.39494
v 0.58062 -0.38297 0.00000
v 0.53642 -0.38297 0.30398
v 0.41056 -0.38297 0.56167
v 0.22219 -0.38297 0.73386
v 0.00000 -0.38297 0.79433
v -0.22219 -0.38297 0.73386
v -0.41056 -0.38297 0.56167
v -0.53642 -0.38297 0.30398
v -0.58062 -0.38297 -0.00000
v -0.53642 -0.38297 -0.37198
v -0.41056 -0.38297 -0.68734
v -0.22219 -0.38297 -0.89805
v -0.00000 -0.38297 -0.97204
v 0.22219 -0.38297 -0.89805
v 0.41056 -0.38297 -0.68734
v 0.53642 -0.38297 -0.37198
v 0.45208 -0.61351 0.00000
v 0.41767 -0.61351 0.25419
v 0.31967 -0.61351 0.46969
v 0.17300 -0.61351 0.61368
v 0.00000 -0.61351 0.66424
v -0.17300 -0.61351 0.61368
v -0.31967 -0.61351 0.46969
v -0.41767 -0.61351 0.25419
v -0.45208 -0.61351 -0.00000
v -0.41767 -0.61351 -0.32741
v -0.31967 -0.61351 -0.60498
v -0.17300 -0.61351 -0.79045
v -0.00000 -0.61351 -0.85557
v 0.17300 -0.61351 -0.79045
v 0.31967 -0.61351 -0.60498
v 0.41767 -0.61351 -0.32741
v 0.32410 -0.80839 0.00000
v 0.29943 -0.80839 0.19572
v 0.22918 -0.80839 0.36164
v 0.12403 -0.80839 0.47251
v 0.00000 -0.80839 0.51144
v -0.12403 -0.80839 0.47251
v -0.22918 -0.80839 0.36164
v -0.29943 -0.80839 0.19572
v -0.32410 -0.80839 0.00000
v -0.29943 -0.80839 -0.26382
v -0.22918 -0.80839 -0.48747
v -0.12403 -0.80839 -0.63691
v -0.00000 -0.80839 -0.68938
v 0.12403 -0.80839 -0.63691
v 0.22918 -0.80839 -0.48747
v 0.29943 -0.80839 -0.26382
v 0.20577 -0.95629 0.00000
v 0.19011 -0.95629 0.13232
v 0.14550 -0.95629 0.24450
v 0.07875 -0.95629 0.31945
v 0.00000 -0.95629 0.34577
v -0.07875 -0.95629 0.31945
v -0.14550 -0.95629 0.24450
v -0.19011 -0.95629 0.13232
v -0.20577 -0.95629 0.00000
v -0.19011 -0.95629 -0.18488
v -0.14550 -0.95629 -0.34162
v -0.07875 -0.95629 -0.44635
v -0.00000 -0.95629 -0.48313
v 0.07875 -0.95629 -0.44635
v 0.14550 -0.95629 -0.34162
v 0.19011 -0.95629 -0.18488
v 0.09910 -1.04862 0.00000
v 0.09155 -1.04862 0.06659
v 0.07007 -1.04862 0.12303
v 0.03792 -1.04862 0.16075
v 0.00000 -1.04862 0.17400
v -0.03792 -1.04862 0.16075
v -0.07007 -1.04862 0.12303
v -0.09155 -1.04862 0.06659
v -0.09910 -1.04862 0.00000
v -0.09155 -1.04862 -0.09521
v -0.07007 -1.04862 -0.17592
v -0.03792 -1.04862 -0.22985
v -0.00000 -1.04862 -0.24879
v 0.03792 -1.04862 -0.22985
v 0.07007 -1.04862 -0.17592
v 0.09155 -1.04862 -0.09521
v -0.00000 -1.08000 0.00000
v -0.00000 -1.08000 -0.00000
v -0.00000 -1.08000 -0.00000
v -0.00000 -1.08000 -0.00000
v -0.00000 -1.08000 -0.00000
v 0.00000 -1.08000 -0.00000
v 0.00000 -1.08000 -0.00000
v 0.00000 -1.08000 -0.00000
v 0.00000 -1.08000 -0.00000
v 0.00000 -1.08000 0.00000
v 0.00000 -1.08000 0.00000
v 0.00000 -1.08000 0.00000
v 0.00000 -1.08000 0.00000
v -0.00000 -1.08000 0.00000
v -0.00000 -1.08000 0.00000
v -0.00000 -1.08000 0.00000
v 0.00000 1.08000 0.00000
v 0.00000 -1.08000 -0.00000
v -0.27000 0.28000 0.62000
v -0.27000 0.28000 0.62000
v -0.27000 0.28000 0.62000
v -0.27000 0.28000 0.62000
v -0.27000 0.28000 0.62000
v -0.27000 0.28000 0.62000
v -0.27000 0.28000 0.62000
v -0.27000 0.28000 0.62000
v -0.19500 0.26258 0.62000
v -0.21697 0.26258 0.66950
v -0.27000 0.26258 0.69000
v -0.32303 0.26258 0.66950
v -0.34500 0.26258 0.62000
v -0.32303 0.26258 0.57050
v -0.27000 0.26258 0.55000
v -0.21697 0.26258 0.57050
v -0.14010 0.21500 0.62000
v -0.17814 0.21500 0.70573
v -0.27000 0.21500 0.74124
v -0.36186 0.21500 0.70573
v -0.39990 0.21500 0.62000
v -0.36186 0.21500 0.53427
v -0.27000 0.21500 0.49876
v -0.17814 0.21500 0.53427
v -0.12000 0.15000 0.62000
v -0.16393 0.15000 0.71899
v -0.27000 0.15000 0.76000
v -0.37607 0.15000 0.71899
v -0.42000 0.15000 0.62000
v -0.37607 0.15000 0.52101
v -0.27000 0.15000 0.48000
v -0.16393 0.15000 0.52101
v -0.14010 0.08500 0.62000
v -0.17814 0.08500 0.70573
v -0.27000 0.08500 0.74124
v -0.36186 0.08500 0.70573
v -0.39990 0.08500 0.62000
v -0.36186 0.08500 0.53427
v -0.27000 0.08500 0.49876
v -0.17814 0.08500 0.53427
v -0.19500 0.03742 0.62000
v -0.21697 0.03742 0.66950
v -0.27000 0.03742 0.69000
v -0.32303 0.03742 0.66950
v -0.34500 0.03742 0.62000
v -0.32303 0.03742 0.57050
v -0.27000 0.03742 0.55000
v -0.21697 0.03742 0.57050
v -0.27000 0.02000 0.62000
v -0.27000 0.02000 0.62000
v -0.27000 0.02000 0.62000
v -0.27000 0.02000 0.62000
v -0.27000 0.02000 0.62000
v -0.27000 0.02000 0.62000
v -0.27000 0.02000 0.62000
v -0.27000 0.02000 0.62000
v -0.27000 0.28000 0.62000
v -0.27000 0.02000 0.62000
v 0.27000 0.28000 0.62000
v 0.27000 0.28000 0.62000
v 0.27000 0.28000 0.62000
v 0.27000 0.28000 0.62000
v 0.27000 0.28000 0.62000
v 0.27000 0.28000 0.62000
v 0.27000 0.28000 0.62000
v 0.27000 0.28000 0.62000
v 0.34500 0.26258 0.62000
v 0.32303 0.26258 0.66950
v 0.27000 0.26258 0.69000
v 0.21697 0.26258 0.66950
v 0.19500 0.26258 0.62000
v 0.21697 0.26258 0.57050
v 0.27000 0.26258 0.55000
v 0.32303 0.26258 0.57050
v 0.39990 0.21500 0.62000
v 0.36186 0.21500 0.70573
v 0.27000 0.21500 0.74124
v 0.17814 0.21500 0.70573
v 0.14010 0.21500 0.62000
v 0.17814 0.21500 0.53427
v 0.27000 0.21500 0.49876
v 0.36186 0.21500 0.53427
v 0.42000 0.15000 0.62000
v 0.37607 0.15000 0.71899
v 0.27000 0.15000 0.76000
v 0.16393 0.15000 0.71899
v 0.12000 0.15000 0.62000
v 0.16393 0.15000 0.52101
v 0.27000 0.15000 0.48000
v 0.37607 0.15000 0.52101
v 0.39990 0.08500 0.62000
v 0.36186 0.08500 0.70573
v 0.27000 0.08500 0.74124
v 0.17814 0.08500 0.70573
v 0.14010 0.08500 0.62000
v 0.17814 0.08500 0.53427
v 0.27000 0.08500 0.49876
v 0.36186 0.08500 0.53427
v 0.34500 0.03742 0.62000
v 0.32303 0.03742 0.66950
v 0.27000 0.03742 0.69000
v 0.21697 0.03742 0.66950
v 0.19500 0.03742 0.62000
v 0.21697 0.03742 0.57050
v 0.27000 0.03742 0.55000
v 0.32303 0.03742 0.57050
v 0.27000 0.02000 0.62000
v 0.27000 0.02000 0.62000
v 0.27000 0.02000 0.62000
v 0.27000 0.02000 0.62000
v 0.27000 0.02000 0.62000
v 0.27000 0.02000 0.62000
v 0.27000 0.02000 0.62000
v 0.27000 0.02000 0.62000
v 0.27000 0.28000 0.62000
v 0.27000 0.02000 0.62000
v -0.27000 0.20000 0.75000
v -0.27000 0.20000 0.75000
v -0.27000 0.20000 0.75000
v -0.27000 0.20000 0.75000
v -0.27000 0.20000 0.75000
v -0.27000 0.20000 0.75000
v -0.24061 0.19045 0.75000
v -0.25531 0.19045 0.77036
v -0.28469 0.19045 0.77036
v -0.29939 0.19045 0.75000
v -0.28469 0.19045 0.72964
v -0.25531 0.19045 0.72964
v -0.22245 0.16545 0.75000
v -0.24622 0.16545 0.78295
v -0.29378 0.16545 0.78295
v -0.31755 0.16545 0.75000
v -0.29378 0.16545 0.71705
v -0.24622 0.16545 0.71705
v -0.22245 0.13455 0.75000
v -0.24622 0.13455 0.78295
v -0.29378 0.13455 0.78295
v -0.31755 0.13455 0.75000
v -0.29378 0.13455 0.71705
v -0.24622 0.13455 0.71705
v -0.24061 0.10955 0.75000
v -0.25531 0.10955 0.77036
v -0.28469 0.10955 0.77036
v -0.29939 0.10955 0.75000
v -0.28469 0.10955 0.72964
v -0.25531 0.10955 0.72964
v -0.27000 0.10000 0.75000
v -0.27000 0.10000 0.75000
v -0.27000 0.10000 0.75000
v -0.27000 0.10000 0.75000
v -0.27000 0.10000 0.75000
v -0.27000 0.10000 0.75000
v -0.27000 0.20000 0.75000
v -0.27000 0.10000 0.75000
v 0.27000 0.20000 0.75000
v 0.27000 0.20000 0.75000
v 0.27000 0.20000 0.75000
v 0.27000 0.20000 0.75000
v 0.27000 0.20000 0.75000
v 0.27000 0.20000 0.75000
v 0.29939 0.19045 0.75000
v 0.28469 0.19045 0.77036
v 0.25531 0.19045 0.77036
v 0.24061 0.19045 0.75000
v 0.25531 0.19045 0.72964
v 0.28469 0.19045 0.72964
v 0.31755 0.16545 0.75000
v 0.29378 0.16545 0.78295
v 0.24622 0.16545 0.78295
v 0.22245 0.16545 0.75000
v 0.24622 0.16545 0.71705
v 0.29378 0.16545 0.71705
v 0.31755 0.13455 0.75000
v 0.29378 0.13455 0.78295
v 0.24622 0.13455 0.78295
v 0.22245 0.13455 0.75000
v 0.24622 0.13455 0.71705
v 0.29378 0.13455 0.71705
v 0.29939 0.10955 0.75000
v 0.28469 0.10955 0.77036
v 0.25531 0.10955 0.77036
v 0.24061 0.10955 0.75000
v 0.25531 0.10955 0.72964
v 0.28469 0.10955 0.72964
v 0.27000 0.10000 0.75000
v 0.27000 0.10000 0.75000
v 0.27000 0.10000 0.75000
v 0.27000 0.10000 0.75000
v 0.27000 0.10000 0.75000
v 0.27000 0.10000 0.75000
v 0.27000 0.20000 0.75000
v 0.27000 0.10000 0.75000
v 0.00000 0.16000 0.90000
v 0.00000 -0.04000 1.16000
v -0.12000 -0.17000 0.88000
v 0.12000 -0.17000 0.88000
v 0.00000 -0.30000 0.80000
v 0.00000 -0.30000 0.80000
v 0.00000 -0.30000 0.80000
v 0.00000 -0.30000 0.80000
v 0.00000 -0.30000 0.80000
v 0.00000 -0.30000 0.80000
v 0.00000 -0.30000 0.80000
v 0.00000 -0.30000 0.80000
v 0.00000 -0.30000 0.80000
v 0.00000 -0.30000 0.80000
v 0.11756 -0.31146 0.80000
v 0.09511 -0.31146 0.82418
v 0.03633 -0.31146 0.83913
v -0.03633 -0.31146 0.83913
v -0.09511 -0.31146 0.82418
v -0.11756 -0.31146 0.80000
v -0.09511 -0.31146 0.77582
v -0.03633 -0.31146 0.76087
v 0.03633 -0.31146 0.76087
v 0.09511 -0.31146 0.77582
v 0.19021 -0.34146 0.80000
v 0.15388 -0.34146 0.83913
v 0.05878 -0.34146 0.86332
v -0.05878 -0.34146 0.86332
v -0.15388 -0.34146 0.83913
v -0.19021 -0.34146 0.80000
v -0.15388 -0.34146 0.76087
v -0.05878 -0.34146 0.73668
v 0.05878 -0.34146 0.73668
v 0.15388 -0.34146 0.76087
v 0.19021 -0.37854 0.80000
v 0.15388 -0.37854 0.83913
v 0.05878 -0.37854 0.86332
v -0.05878 -0.37854 0.86332
v -0.15388 -0.37854 0.83913
v -0.19021 -0.37854 0.80000
v -0.15388 -0.37854 0.76087
v -0.05878 -0.37854 0.73668
v 0.05878 -0.37854 0.73668
v 0.15388 -0.37854 0.76087
v 0.11756 -0.40854 0.80000
v 0.09511 -0.40854 0.82418
v 0.03633 -0.40854 0.83913
v -0.03633 -0.40854 0.83913
v -0.09511 -0.40854 0.82418
v -0.11756 -0.40854 0.80000
v -0.09511 -0.40854 0.77582
v -0.03633 -0.40854 0.76087
v 0.03633 -0.40854 0.76087
v 0.09511 -0.40854 0.77582
v 0.00000 -0.42000 0.80000
v 0.00000 -0.42000 0.80000
v 0.00000 -0.42000 0.80000
v -0.00000 -0.42000 0.80000
v -0.00000 -0.42000 0.80000
v -0.00000 -0.42000 0.80000
v -0.00000 -0.42000 0.80000
v -0.00000 -0.42000 0.80000
v 0.00000 -0.42000 0.80000
v 0.00000 -0.42000 0.80000
v 0.00000 -0.30000 0.80000
v -0.00000 -0.42000 0.80000
g Head
o Head
f 17 18 34 33
f 18 19 35 34
f 19 20 36 35
f 20 21 37 36
f 21 22 38 37
f 22 23 39 38
f 23 24 40 39
f 24 25 41 40
f 25 26 42 41
f 26 27 43 42
f 27 28 44 43
f 28 29 45 44
f 29 30 46 45
f 30 31 47 46
f 31 32 48 47
f 32 17 33 48
f 33 34 50 49
f 34 35 51 50
f 35 36 52 51
f 36 37 53 52
f 37 38 54 53
f 38 39 55 54
f 39 40 56 55
f 40 41 57 56
f 41 42 58 57
f 42 43 59 58
f 43 44 60 59
f 44 45 61 60
f 45 46 62 61
f 46 47 63 62
f 47 48 64 63
f 48 33 49 64
f 49 50 66 65
f 50 51 67 66
f 51 52 68 67
f 52 53 69 68
f 53 54 70 69
f 54 55 71 70
f 55 56 72 71
f 56 57 73 72
f 57 58 74 73
f 58 59 75 74
f 59 60 76 75
f 60 61 77 76
f 61 62 78 77
f 62 63 79 78
f 63 64 80 79
f 64 49 65 80
f 65 66 82 81
f 66 67 83 82
f 67 68 84 83
f 68 69 85 84
f 69 70 86 85
f 70 71 87 86
f 71 72 88 87
f 72 73 89 88
f 73 74 90 89
f 74 75 91 90
f 75 76 92 91
f 76 77 93 92
f 77 78 94 93
f 78 79 95 94
f 79 80 96 95
f 80 65 81 96
f 81 82 98 97
f 82 83 99 98
f 83 84 100 99
f 84 85 101 100
f 85 86 102 101
f 86 87 103 102
f 87 88 104 103
f 88 89 105 104
f 89 90 106 105
f 90 91 107 106
f 91 92 108 107
f 92 93 109 108
f 93 94 110 109
f 94 95 111 110
f 95 96 112 111
f 96 81 97 112
f 97 98 114 113
f 98 99 115 114
f 99 100 116 115
f 100 101 117 116
f 101 102 118 117
f 102 103 119 118
f 103 104 120 119
f 104 105 121 120
f 105 106 122 121
f 106 107 123 122
f 107 108 124 123
f 108 109 125 124
f 109 110 126 125
f 110 111 127 126
f 111 112 128 127
f 112 97 113 128
f 113 114 130 129
f 114 115 131 130
f 115 116 132 131
f 116 117 133 132
f 117 118 134 133
f 118 119 135 134
f 119 120 136 135
f 120 121 137 136
f 121 122 138 137
f 122 123 139 138
f 123 124 140 139
f 124 125 141 140
f 125 126 142 141
f 126 127 143 142
f 127 128 144 143
f 128 113 129 144
f 129 130 146 145
f 130 131 147 146
f 131 132 148 147
f 132 133 149 148
f 133 134 150 149
f 134 135 151 150
f 135 136 152 151
f 136 137 153 152
f 137 138 154 153
f 138 139 155 154
f 139 140 156 155
f 140 141 157 156
f 141 142 158 157
f 142 143 159 158
f 143 144 160 159
f 144 129 145 160
f 145 146 162 161
f 146 147 163 162
f 147 148 164 163
f 148 149 165 164
f 149 150 166 165
f 150 151 167 166
f 151 152 168 167
f 152 153 169 168
f 153 154 170 169
f 154 155 171 170
f 155 156 172 171
f 156 157 173 172
f 157 158 174 173
f 158 159 175 174
f 159 160 176 175
f 160 145 161 176
f 161 162 178 177
f 162 163 179 178
f 163 164 180 179
f 164 165 181 180
f 165 166 182 181
f 166 167 183 182
f 167 168 184 183
f 168 169 185 184
f 169 170 186 185
f 170 171 187 186
f 171 172 188 187
f 172 173 189 188
f 173 174 190 189
f 174 175 191 190
f 175 176 192 191
f 176 161 177 192
f 177 178 194 193
f 178 179 195 194
f 179 180 196 195
f 180 181 197 196
f 181 182 198 197
f 182 183 199 198
f 183 184 200 199
f 184 185 201 200
f 185 186 202 201
f 186 187 203 202
f 187 188 204 203
f 188 189 205 204
f 189 190 206 205
f 190 191 207 206
f 191 192 208 207
f 192 177 193 208
f 225 18 17
f 225 19 18
f 225 20 19
f 225 21 20
f 225 22 21
f 225 23 22
f 225 24 23
f 225 25 24
f 225 26 25
f 225 27 26
f 225 28 27
f 225 29 28
f 225 30 29
f 225 31 30
f 225 32 31
f 225 17 32
f 226 193 194
f 226 194 195
f 226 195 196
f 226 196 197
f 226 197 198
f 226 198 199
f 226 199 200
f 226 200 201
f 226 201 202
f 226 202 203
f 226 203 204
f 226 204 205
f 226 205 206
f 226 206 207
f 226 207 208
f 226 208 193
g EyeL
o EyeL
f 235 236 244 243
f 236 237 245 244
f 237 238 246 245
f 238 239 247 246
f 239 240 248 247
f 240 241 249 248
f 241 242 250 249
f 242 235 243 250
f 243 244 252 251
f 244 245 253 252
f 245 246 254 253
f 246 247 255 254
f 247 248 256 255
f 248 249 257 256
f 249 250 258 257
f 250 243 251 258
f 251 252 260 259
f 252 253 261 260
f 253 254 262 261
f 254 255 263 262
f 255 256 264 263
f 256 257 265 264
f 257 258 266 265
f 258 251 259 266
f 259 260 268 267
f 260 261 269 268
f 261 262 270 269
f 262 263 271 270
f 263 264 272 271
f 264 265 273 272
f 265 266 274 273
f 266 259 267 274
f 283 236 235
f 283 237 236
f 283 238 237
f 283 239 238
f 283 240 239
f 283 241 240
f 283 242 241
f 283 235 242
f 284 267 268
f 284 268 269
f 284 269 270
f 284 270 271
f 284 271 272
f 284 272 273
f 284 273 274
f 284 274 267
g EyeR
o EyeR
f 293 294 302 301
f 294 295 303 302
f 295 296 304 303
f 296 297 305 304
f 297 298 306 305
f 298 299 307 306
f 299 300 308 307
f 300 293 301 308
f 301 302 310 309
f 302 303 311 310
f 303 304 312 311
f 304 305 313 312
f 305 306 314 313
f 306 307 315 314
f 307 308 316 315
f 308 301 309 316
f 309 310 318 317
f 310 311 319 318
f 311 312 320 319
f 312 313 321 320
f 313 314 322 321
f 314 315 323 322
f 315 316 324 323
f 316 309 317 324
f 317 318 326 325
f 318 319 327 326
f 319 320 328 327
f 320 321 329 328
f 321 322 330 329
f 322 323 331 330
f 323 324 332 331
f 324 317 325 332
f 341 294 293
f 341 295 294
f 341 296 295
f 341 297 296
f 341 298 297
f 341 299 298
f 341 300 299
f 341 293 300
f 342 325 326
f 342 326 327
f 342 327 328
f 342 328 329
f 342 329 330
f 342 330 331
f 342 331 332
f 342 332 325
g PupilL
o PupilL
f 349 350 356 355
f 350 351 357 356
f 351 352 358 357
f 352 353 359 358
f 353 354 360 359
f 354 349 355 360
f 355 356 362 361
f 356 357 363 362
f 357 358 364 363
f 358 359 365 364
f 359 360 366 365
f 360 355 361 366
f 361 362 368 367
f 362 363 369 368
f 363 364 370 369
f 364 365 371 370
f 365 366 372 371
f 366 361 367 372
f 379 350 349
f 379 351 350
f 379 352 351
f 379 353 352
f 379 354 353
f 379 349 354
f 380 367 368
f 380 368 369
f 380 369 370
f 380 370 371
f 380 371 372
f 380 372 367
g PupilR
o PupilR
f 387 388 394 393
f 388 389 395 394
f 389 390 396 395
f 390 391 397 396
f 391 392 398 397
f 392 387 393 398
f 393 394 400 399
f 394 395 401 400
f 395 396 402 401
f 396 397 403 402
f 397 398 404 403
f 398 393 399 404
f 399 400 406 405
f 400 401 407 406
f 401 402 408 407
f 402 403 409 408
f 403 404 410 409
f 404 399 405 410
f 417 388 387
f 417 389 388
f 417 390 389
f 417 391 390
f 417 392 391
f 417 387 392
f 418 405 406
f 418 406 407
f 418 407 408
f 418 408 409
f 418 409 410
f 418 410 405
g Nose
o Nose
f 419 421 420
f 419 420 422
f 421 422 420
g Mouth
o Mouth
f 433 434 444 443
f 434 435 445 444
f 435 436 446 445
f 436 437 447 446
f 437 438 448 447
f 438 439 449 448
f 439 440 450 449
f 440 441 451 450
f 441 442 452 451
f 442 433 443 452
f 443 444 454 453
f 444 445 455 454
f 445 446 456 455
f 446 447 457 456
f 447 448 458 457
f 448 449 459 458
f 449 450 460 459
f 450 451 461 460
f 451 452 462 461
f 452 443 453 462
f 453 454 464 463
f 454 455 465 464
f 455 456 466 465
f 456 457 467 466
f 457 458 468 467
f 458 459 469 468
f 459 460 470 469
f 460 461 471 470
f 461 462 472 471
f 462 453 463 472
f 483 434 433
f 483 435 434
f 483 436 435
f 483 437 436
f 483 438 437
f 483 439 438
f 483 440 439
f 483 441 440
f 483 442 441
f 483 433 442
f 484 463 464
f 484 464 465
f 484 465 466
f 484 466 467
f 484 467 468
f 484 468 469
f 484 469 470
f 484 470 471
f 484 471 472
f 484 472 463
